<svg xmlns="http://www.w3.org/2000/svg" viewBox="0 0 207.77 256.26"><defs><style>.cls-1{fill:#f7f7f7;}</style></defs><g id="Layer_2" data-name="Layer 2"><g id="Layer_1-2" data-name="Layer 1"><path class="cls-1" d="M207.33,177.26l-.07.84.1,3.08-.07.5-1.25,2.8a.94.94,0,0,0-.06.15l-.15.75h0l0,.11.07.75-.23.52-1.11.43-3,.56h-.33l-1.27-.17-.11,0-.11,0-.6.09a.6.6,0,0,0-.19.06l-2.58,1.17-.16.1-6.67,5.33-.78.4-.7.09-5.52-.08-1.73.16-.17,0-1.71.59a.75.75,0,0,0-.2.1l-1.93,1.44h0l-.14.1-.08.16-.16.33L175.7,199v.15l-.3,4-.72,2.81h0l0,.1v.12l.16,2.74-.12.77-.22.72-.51,1.05-.7,1-.81.83-2.11,1.19a.57.57,0,0,0-.15.12l-2.52,2.47-3.17,2.31a.52.52,0,0,0-.11.1l-.94,1a1.24,1.24,0,0,0-.14.18l-.85,1.82-.4.62-.25.1-.29-.15-.14-.6.13-1,.26-.73.95-1.86.09-.17-.06-1.53-.34-.21h0l-.93-.56-.29-.18-1.46.18-.13.07-1.19.67-1.9,1.41-2.49,1.3-1.07.74a.77.77,0,0,0-.16.15l-.89,1.13a.56.56,0,0,0-.1.15l-.94,2-.48.7-5.63,3.73-.66.14-.7-.11-2.22-1.07-.15-.07h-.16l-.83,0h-.26l-.21.15h0l-.74.56-.09.09-1,1.06-.75.58-.59.16-.78.08-.12,0-1.08.3a.52.52,0,0,0-.19.08l-.48.28-.11.08-1.48,1.29-.45.19a.48.48,0,0,0-.16.08l-.19.13,0,0-.16.1-.09.2-.1.25a.48.48,0,0,0-.06.24l0,.24-1.12.23-1.92-.18-2.14.54-.15.32-1.09,2.17a.77.77,0,0,0-.07.26l-.38,3.82-.44,1.71-.91,1.2-.63.3-.72,0-1.89-.29h-.07l-1.19,0H118l-1.08.54-3,3.59a.86.86,0,0,0-.07.1l-.51.88a.69.69,0,0,0,0,.1l-.45,1.14a.47.47,0,0,0,0,.17l-.06.38v.07l.06,1.27-.11.34-.77.84a.47.47,0,0,0-.09.12l-.79,1.32-.85.69-1,.59-.85.3-.8.06-.51-.2-.46-.46-.37-.74-.08-1.82,1-1.52,1.39-1.79a.78.78,0,0,0,.12-.22l.74-2.15h0l0-.15v-.14h0l-.07-1.09,0-.17-.31-1a.52.52,0,0,0-.06-.13l-.49-.93a.57.57,0,0,0-.08-.13l-1.17-1.44-.59-.55-.56-.42-.14-.08-.61-.28a.68.68,0,0,0-.2-.07l-.56-.07h0l-.08,0-.11,0-.89.14L100,240.7l-1,.12-.14,0-1.14.37-.17.08-1.76,1.11-4,1.87-.11.05-.91.62-.09.08-1.11,1.05-1.73,2.1-.93.91-.77.48-.73.19-2,.12a.58.58,0,0,0-.26.06l-1,.43h0l-.13.06-1.49,1.67-.75.34-.65,0-.56-.34-.75-.55-.16-.1-.91-.37h0l-.12-.05H75.59a.64.64,0,0,0-.2,0l-2.45.74-2.5-.56-2.63-1.83-21.6-19.43-.86-1.77-.15-.76.73-1.48.09-.18v-.19l0-1.1a.69.69,0,0,0,0-.2l-.36-1.14a.5.5,0,0,0,0-.13l-.49-.92a.66.66,0,0,0-.12-.17l-.47-.5a.46.46,0,0,0-.07-.07l-.5-.39-.27-.3-.08-.31.29-1.74,0-.13,0-.12-.18-1a.49.49,0,0,0-.06-.17l-.48-1.08-.94-1.55-.42-.93-.15-.76v-2.1l-.13-1a1.09,1.09,0,0,0-.05-.17l-4-10.68-.78-1.49-.09-.4a.7.7,0,0,0-.08-.2l-.2-.36,0,0-.06-.14-.89-.61-.28-.46a.31.31,0,0,0-.09-.11l-.3-.34-.21-.31,0-.09.58-.77.21-.34a.85.85,0,0,0,.09-.24l.16-.81v0l0-.07-.17-2.62a.59.59,0,0,0-.05-.23l-.29-.75s0,0,0,0l-.09-.22-.93-.51a.35.35,0,0,0-.14-.06l-.76-.23-.47-.26-.26-.4-.71-1.86-.31-1.38,0-.12-.68-1.64v-.43l1.17-1.18a.81.81,0,0,0,.12-.14l.61-1h0l.18-.28-.4-1.27a1.3,1.3,0,0,0-.08-.17l-.15-.25v-.67a.69.69,0,0,0-.05-.24l-.16-.46,0,0,0-.14-.12-.12h0l-.36-.37A.71.71,0,0,0,31,175L29.46,174a.69.69,0,0,0-.15-.07l-1.54-.5-.27-.17-.83-.82-.09-.08-.51-.36a.65.65,0,0,0-.22-.11l-.42-.13-.14-.08-.37-1-.29-.62-.12-.1-.44-.37-.13-.09L23,169l-.29-.22-.42-.81a1.3,1.3,0,0,0-.1-.15l-.32-.41,0,0-.12-.17-.64-.18-.65-.82-.13-.28a.24.24,0,0,0-.06-.11l-.19-.3,0,0-.08-.15-.19-.09-.93-.45-.23-.17-.34-1a.47.47,0,0,0,0-.1L18,163.2h0l-.06-.12-.1-.1-.7-.62-.12-.12-1-.31-.21,0-1.83,0-.16-.12-.19-.73-.25-2a1.33,1.33,0,0,0-.05-.19l-.34-.84a.34.34,0,0,0-.06-.12l-.66-1a.69.69,0,0,0-.16-.18l-.84-.7h0l-.26-.22-.36.09h0l-1,.25-.72.27L8,156.11l-1.7-.83-.52-.59L5,154.33l-.3.16-.77.38-.27,0-1.13-.06-.11,0-.93.25-.24.06-.15.18-.16.19v-.93l.62-1,17.75-16.47.36-.17.92-.19.1,0,.48-.17a.9.9,0,0,0,.22-.11l.56-.43a.86.86,0,0,0,.14-.13l2.85-3.59,1.29-2.08.2-1.78,0-.33,0-.36-1.89-2-1.82-.71-.5-.35-.51-.72-3.09-8.08a1.62,1.62,0,0,0-.1-.18L17.23,114l-.11-.15-.17-.08-1.75-.82-.17-.08h-.2l-1,.07-.79.15H12.4l-.59-.3-.62-.75-.26-.88-.25-2.23a1.21,1.21,0,0,0,0-.18l-.44-1.14a.54.54,0,0,0,0-.11l-1.8-3.13-.18-.82L8,100.71a.86.86,0,0,0,0-.23l-.4-1.1,0,0-.08-.24-.08-.05V99l0-.18h0l0-.2-.07-.18-.3-.86h0l0-.15-.11-.12-.37-.38-.35-1.32,0-.19L6,95.26l-.94-1-.73-.6L4.08,93l-.22-1.45-.38-1.36L3.24,88.8l.2-1.51.76-1.41a.72.72,0,0,0,.09-.2l.12-.55v0l0-.15,0-.17-.16-.6A.85.85,0,0,0,4.15,84L3.57,83l-.09-.33.33-.87v-.43l0-.32-.11-.17,0,0-.29-.45-.24-.08-.35-.12-.32-1.37a.67.67,0,0,0-.07-.18L2,78.07s0,0,0,0L2,77.92l-.14-.1-.88-.63L0,76.54l0-.1,0-.26.42-.31.08-.12.25-.38.09-.15,0-.17,0-.21,0-.31L.91,73.08,1.18,72s0-.09,0-.13l.14-2.52.2-.84.43-.7L2.33,67l.07-.13v-.16l.11-1.93.4-1.09-.16-.3-.09-.16.09-.17.07-.15,0-.89,0-.1v0l-.54-1.14,0-.12,0-.92L2.54,58l.58-1.76,0-.17.08-1-.07-1.88.11-.12L3.34,53l.21-.32v0l.08-.11.18-.91-.3-.56A1,1,0,0,0,3.43,51L2.63,50l-.21-.34-.11-.29-.12-.74V48.2l.1-.44.42-1.15.12-.5-.06-1.22a.5.5,0,0,0,0-.12L2.58,44a.93.93,0,0,0,0-.13L2.21,43l-.37-.66-.38-1.52.36-1.66,1-1.62,1.45-1.21.33.05.13,0,.12,0,.22,0,.19,0L5.68,36a.6.6,0,0,0,.08-.08l.4-.48,1.36-.57.16-.08.39-.27a.69.69,0,0,0,.13-.11l.8-.87.32-.23.61-.16.37-.36.17-.17.06-.19L11,30.87l.43-.46a.52.52,0,0,0,.1-.11l.28-.38h0l.09-.12.13-.6,0-.1.08-.32-.19-.28-.15-.23a.52.52,0,0,0-.1-.11l-.64-.63L11,26.74l-.51-2.68v-2l.34-1.85.69-1.71,1-1.55,2.7-2.56a.55.55,0,0,0,.13-.17l.4-.67,2-2.27.52-.32,1.63-.69a1.18,1.18,0,0,0,.19-.11l.56-.47,0,0,.17-.14.26-1.17L21,7.15A.58.58,0,0,0,21,7L20.64,6s0,0,0,0l-.07-.19L19.3,4.91,17.78,2.52V1.07l.12-.38.34-.37L18.66,0l.9.65.28.34.42,1.06a1,1,0,0,0,.1.17l.13.19.08.08.12.11.27.24L21,2.9l.05,0,.25.13,0,0,.06,0,.3.12.14,0h0l.48,0h.09l.4-.07A.44.44,0,0,0,23,3.17l.26-.1.18-.1.44-.35.57-.55.85.79s0,0,0,0l.1.07.65.37.12.05.68.19.79.14h.83l1.33-.18h.5l.16,0,.16,0,.61.88.14.35.69,2.93.05.64v0l0,.15.15.78v1.7h0l-.06.54-.11.42L29.75,18a1,1,0,0,0-.05.18l-.25,1.68h0v.1h0v.39l.17.85,0,.11,0,.09.05.13a.37.37,0,0,0,.05.11l.06.09.06.11h0s0,0,0,0L30,22l.12.09.12.1.11.08a1.88,1.88,0,0,0,.18.12l.36.14h.06l.14,0,.72.07h.14l.5-.05.44-.1.66-.24.93-.18,1-.09.43.15.43.3.09.11.19.21L37,24.61l.16.48a1,1,0,0,0,.07.15l.13.23.1.16.08.12.37.37a.61.61,0,0,0,.16.12l.26.13.13.06.16,0,.15.05a.35.35,0,0,0,.17,0l.77.06h.1L41,26.45l.11,0,1.27-.51,3.13-1.83L47,23.59l1.47-.49L54,22.89l.15,0,1.09-.26.66-.24L57,21.94l1.46-.3.11,0,2.3-.84.51-.27.38-.26a.52.52,0,0,0,.11-.1L65,17l5.53-4.6h0l.35.22.52.61.12.25.18.39,1,4.61a.56.56,0,0,0,0,.12l.07.19.11.26,0,.1.82,1.42a.64.64,0,0,0,.1.13l.19.2a.94.94,0,0,0,.1.1l.24.16v0h0a.7.7,0,0,0,.23.11l.45.13a.78.78,0,0,0,.22,0h.45l.3-.05.14,0L77,21l.41-.15.84-.43.09-.05.62-.45.64-.56.49-.3.33-.15.3,0,3.68.25.1,0,.53-.11.14,0,1.58-.65.13-.07.37-.26.14-.12.2-.23.33-.54.28-.78a.52.52,0,0,0,0-.11l.14-.87,0-.14,5-8.46a.37.37,0,0,0,.05-.11l.69-1.84.07-.13.25-.44a.54.54,0,0,0,0-.11l.09-.22.14-.35L96.6,2.38l.72-.15,3.12,0,.8-.1L102,2l.55,0,.55,0,.34.1.91.6.19.21.11.2,0,.07.08.22.1.91v.17l0,.19-.19.82a.36.36,0,0,0,0,.1l-.08.63v.16l-.23.78,0,.1,0,.28-.08.39-.14.4,0,.12-.41,2.15-.54.92-.16.34-.15.32a.94.94,0,0,0-.06.15l-.41,1.63a.52.52,0,0,0,0,.11l-.08.88.07,3a1.13,1.13,0,0,0,0,.18l.15.58,1.21,3.06.08.12.08.16a.61.61,0,0,0,.07.1l.23.31a.52.52,0,0,0,.11.1l.5.43.13.09.32.16,0,0,.15.06.33.1h0l.1,0,.69,0,.15,0,.5-.13a.49.49,0,0,0,.17-.06l.49-.27.19-.13a.39.39,0,0,0,.1-.08l.54-.55,1.12-1.09,1-1.19.28-.28,1.08-.23.24-.05,7.82.06,1,.19.34.17,0,.29-.08.6-.08.23-.09.18-1.34,1.34a.76.76,0,0,0-.08.11l-.07.1-.06.08h0l-.08.11-.06.32,0,.17h0v.59a.63.63,0,0,0,0,.19l.26.88.3.73.08.13.18.26.33.49a.65.65,0,0,0,.11.12l.38.35.35.33,3.81,2.85.23.33,0,.25,0,.34v0l-.23.8-.15.3-.08.11-1.07.64-.13.1-.18.18-.19.18,0,0-.09.09h0v0l-.12.38a.59.59,0,0,0,0,.23v.26s0,0,0,0v.14l.22.44,0,.1h0a.53.53,0,0,0,.11.15l.15.18,0,0,0,0,.1.09,2.18,1.63.22.23h0v.1l0,.35-.27.88-.17.4-.15.33-.46.45-.46.28-.8.29-.13,0-2.74-.12h-.06l-.35,0-.09,0-.18,0-.11,0h0l-.1,0-.18.07-.4.24-.28.17,0,0a.24.24,0,0,0-.08.06l-.16.16-.08.09-.07.1-.06.09a.5.5,0,0,0-.08.12l-.24.51-.09.34-.08.27v0l0,.12.12.62a.44.44,0,0,0,0,.1l.13.39.07.2a.5.5,0,0,0,0,.13l.94,1.7.25.34.11.12.61.53.4.45.45.65,1.72,6.58a.3.3,0,0,0,0,.1l1.66,4,.06.11,1.56,2.46.19.43.13.29.42.73.58,1.32a.62.62,0,0,0,.11.17l6.63,8.11.09.12.13.07h0l.43.22a.62.62,0,0,0,.19.07l4.83,1,.12,0,4.1.18,1.6.27.37.23.35.22.43.57.17.37.12.26.44,2,.68,6.09,0,.12.07.25.25.9,0,.3-.1,1.83L148.56,90,147,88.46a.66.66,0,0,0-.17-.12l-2.14-1.1h0l-.18-.09h-.21l-.38,0-2,.14-.2.18-.33.31-.41.39-.43,1a.46.46,0,0,0-.05.2l-.12,1s0,0,0,0l0,.07.15,1.18.71,1.32.16.11.81.53.14.07.91.36.83.47.52.58.27.61.56,1.88a.69.69,0,0,0,0,.13l1.91,3.68.08.16v.57h.39l.7.85a1.14,1.14,0,0,0,.11.11l2.1,1.65.94,1,2,2.78a.54.54,0,0,0,.15.15l4.5,3.5.09.06,1.85,1,.1,0,2.12.81.92.56L166,118l.11.1,2,1.63.73.84.27.88v1.52l-.1.73-.26.67-1.19,1.58-.06.09-.46.85a1.06,1.06,0,0,0-.09.25l-.16,1.12a0,0,0,0,1,0,0v.1l0,.14,1.18,5.77.16,1.86-.42,3.92h0v.1h0l.12,1.94v.15l.06.14h0l.81,1.62a.56.56,0,0,0,.1.15l1.43,1.68,1.63,2.93s.05.07.07.1l1.42,1.81,3.5,6.81.76,2.45a1.3,1.3,0,0,0,.08.17l.48.79.08.27-.29,1.37a.68.68,0,0,0,0,.14l-.14,2.57-.17.71-1.74,3.13-.06.14-.33,1.13,0,.12v.13l.05,1h0v.15l.07.14.4.8.11.21,1.17.64,1.16-.27,2.55.28,5.53,1.52.1,0h.11l3.07,0,2.86-.39,5.88.14,3,.47,5.71.18.46.17v0l-.41,1.4Z"/></g></g></svg>